<svg width="26" height="48" viewBox="0 0 26 48" fill="none" xmlns="http://www.w3.org/2000/svg">
<path d="M24.0769 5.76H19.2692C19.2692 4.23235 18.6614 2.76727 17.5795 1.68706C16.4975 0.606855 15.0301 0 13.5 0C11.9699 0 10.5025 0.606855 9.42054 1.68706C8.3386 2.76727 7.73077 4.23235 7.73077 5.76H2.92308C2.41305 5.76 1.9239 5.96229 1.56326 6.32236C1.20261 6.68243 1 7.17078 1 7.68V22.08C1 22.5892 1.20261 23.0776 1.56326 23.4376C1.9239 23.7977 2.41305 24 2.92308 24H24.0769C24.587 24 25.0761 23.7977 25.4367 23.4376C25.7974 23.0776 26 22.5892 26 22.08V7.68C26 7.17078 25.7974 6.68243 25.4367 6.32236C25.0761 5.96229 24.587 5.76 24.0769 5.76ZM9.65385 10.56C9.65385 10.8146 9.55254 11.0588 9.37222 11.2388C9.19189 11.4189 8.94732 11.52 8.69231 11.52C8.43729 11.52 8.19272 11.4189 8.0124 11.2388C7.83207 11.0588 7.73077 10.8146 7.73077 10.56V8.64C7.73077 8.38539 7.83207 8.14121 8.0124 7.96118C8.19272 7.78114 8.43729 7.68 8.69231 7.68C8.94732 7.68 9.19189 7.78114 9.37222 7.96118C9.55254 8.14121 9.65385 8.38539 9.65385 8.64V10.56ZM13.5 1.92C14.5201 1.92 15.4983 2.32457 16.2196 3.04471C16.9409 3.76485 17.3462 4.74157 17.3462 5.76H9.65385C9.65385 4.74157 10.0591 3.76485 10.7804 3.04471C11.5017 2.32457 12.4799 1.92 13.5 1.92ZM19.2692 10.56C19.2692 10.8146 19.1679 11.0588 18.9876 11.2388C18.8073 11.4189 18.5627 11.52 18.3077 11.52C18.0527 11.52 17.8081 11.4189 17.6278 11.2388C17.4475 11.0588 17.3462 10.8146 17.3462 10.56V8.64C17.3462 8.38539 17.4475 8.14121 17.6278 7.96118C17.8081 7.78114 18.0527 7.68 18.3077 7.68C18.5627 7.68 18.8073 7.78114 18.9876 7.96118C19.1679 8.14121 19.2692 8.38539 19.2692 8.64V10.56Z" fill="black"/>
<circle cx="13" cy="22" r="5" fill="#55ACEE"/>
<g filter="url(#filter0_d_194_1690)">
<path d="M11.518 24V23.342H12.512V20.416H11.693V19.912C11.9123 19.87 12.1037 19.821 12.267 19.765C12.4303 19.7043 12.582 19.632 12.722 19.548H13.324V23.342H14.199V24H11.518Z" fill="white"/>
</g>
<defs>
<filter id="filter0_d_194_1690" x="0.518066" y="19.5479" width="24.6809" height="28.4521" filterUnits="userSpaceOnUse" color-interpolation-filters="sRGB">
<feFlood flood-opacity="0" result="BackgroundImageFix"/>
<feColorMatrix in="SourceAlpha" type="matrix" values="0 0 0 0 0 0 0 0 0 0 0 0 0 0 0 0 0 0 127 0" result="hardAlpha"/>
<feOffset dy="13"/>
<feGaussianBlur stdDeviation="5.5"/>
<feComposite in2="hardAlpha" operator="out"/>
<feColorMatrix type="matrix" values="0 0 0 0 0 0 0 0 0 0 0 0 0 0 0 0 0 0 0.25 0"/>
<feBlend mode="normal" in2="BackgroundImageFix" result="effect1_dropShadow_194_1690"/>
<feBlend mode="normal" in="SourceGraphic" in2="effect1_dropShadow_194_1690" result="shape"/>
</filter>
</defs>
</svg>
