<svg width="19" height="16" viewBox="0 0 19 16" fill="none" xmlns="http://www.w3.org/2000/svg">
<path d="M9.12 5.05263L11.7895 7.71368V7.57895C11.7895 6.90893 11.5233 6.26635 11.0495 5.79257C10.5758 5.3188 9.93318 5.05263 9.26316 5.05263H9.12ZM5.49895 5.72632L6.80421 7.03158C6.76211 7.20842 6.73684 7.38526 6.73684 7.57895C6.73684 8.24897 7.00301 8.89155 7.47678 9.36532C7.95056 9.8391 8.59314 10.1053 9.26316 10.1053C9.44842 10.1053 9.63368 10.08 9.81053 10.0379L11.1158 11.3432C10.5516 11.6211 9.92842 11.7895 9.26316 11.7895C8.14646 11.7895 7.07549 11.3459 6.28587 10.5562C5.49624 9.76661 5.05263 8.69565 5.05263 7.57895C5.05263 6.91368 5.22105 6.29053 5.49895 5.72632ZM0.842105 1.06947L2.76211 2.98947L3.14105 3.36842C1.75158 4.46316 0.656842 5.89474 0 7.57895C1.45684 11.2758 5.05263 13.8947 9.26316 13.8947C10.5684 13.8947 11.8147 13.6421 12.9516 13.1874L13.3137 13.5411L15.7726 16L16.8421 14.9305L1.91158 0M9.26316 3.36842C10.3799 3.36842 11.4508 3.81203 12.2404 4.60166C13.0301 5.39128 13.4737 6.46225 13.4737 7.57895C13.4737 8.1179 13.3642 8.64 13.1705 9.11158L15.6379 11.5789C16.9011 10.5263 17.9116 9.14526 18.5263 7.57895C17.0695 3.88211 13.4737 1.26316 9.26316 1.26316C8.08421 1.26316 6.95579 1.47368 5.89474 1.85263L7.72211 3.66316C8.20211 3.47789 8.71579 3.36842 9.26316 3.36842Z" fill="black" fill-opacity="0.5"/>
</svg>
