<svg width="23" height="14" viewBox="0 0 23 14" fill="none" xmlns="http://www.w3.org/2000/svg">
<path d="M13.6085 5.99725C13.6753 6.3506 13.7231 6.70396 13.7231 7.16231C13.7231 11.1637 11.0395 14 7 14C3.13235 14 0 10.8677 0 7C0 3.13232 3.13235 0 7 0C8.89088 0 10.4666 0.687568 11.6889 1.83356L9.78852 3.65757C9.27281 3.16097 8.36562 2.57844 7 2.57844C4.61256 2.57844 2.66438 4.55525 2.66438 7C2.66438 9.44475 4.61256 11.4216 7 11.4216C9.76941 11.4216 10.8104 9.42565 10.9727 8.40379H7V5.99721H13.6085V5.99725ZM20.3681 6.23193V4.2H18.3264V6.23193H16.2944V8.27363H18.3264V10.3056H20.3681V8.27363H22.4V6.23193H20.3681Z" fill="black"/>
</svg>
