<svg width="221" height="58" viewBox="0 0 221 58" fill="none" xmlns="http://www.w3.org/2000/svg">
<path d="M3.60881 14.7886H8.83238C8.2297 17.5348 7.99784 20.3857 7.99784 23.137C7.99784 23.9548 8.68441 24.6183 9.53072 24.6183C10.377 24.6183 11.0636 23.9548 11.0636 23.137C11.0636 20.3962 11.3029 17.5185 11.9638 14.7886H29.814C30.475 17.5185 30.7142 20.3962 30.7142 23.137C30.7142 23.9548 31.4008 24.6183 32.2471 24.6183C33.0934 24.6183 33.78 23.9548 33.78 23.137C33.78 20.3857 33.5481 17.5348 32.9454 14.7886H38.3968C38.8093 14.7886 39.1456 15.1034 39.1626 15.4979L41.9968 48.876C42.0313 49.2837 41.718 49.6413 41.2962 49.6748C41.2748 49.6765 41.2535 49.6772 41.2324 49.6772H0.766464C0.343174 49.6772 0 49.3456 0 48.9366C0 48.9054 0.00199907 48.8747 0.0058842 48.8445L2.83965 15.4714C2.87266 15.0822 3.2111 14.7853 3.60881 14.7886Z" fill="#040325"/>
<path d="M8.76367 23.1368C8.76367 23.5458 9.10684 23.8774 9.53013 23.8774C9.95342 23.8774 10.2966 23.5458 10.2966 23.1368C10.2966 13.7393 13.1041 7.76579 16.6977 5.18706C18.026 4.23384 19.4603 3.7572 20.8884 3.7572C22.3164 3.7572 23.7507 4.23384 25.079 5.18709C28.6725 7.76574 31.4801 13.7391 31.4801 23.1367C31.4801 23.5458 31.8232 23.8774 32.2465 23.8774C32.6698 23.8774 33.013 23.5458 33.013 23.1367C33.013 13.2189 29.9323 6.83039 25.9892 4.00086C24.3867 2.8509 22.6406 2.27588 20.8884 2.27588C19.1362 2.27588 17.39 2.85086 15.7875 4.00082C11.8443 6.83043 8.76367 13.2191 8.76367 23.1368Z" fill="#040325"/>
<path d="M8.48086 43.9068C8.26197 43.8017 8.15253 43.5828 8.15253 43.2501C8.15253 42.9174 8.41957 42.2082 8.95365 41.1226C9.48773 40.0281 9.90798 39.4809 10.2144 39.4809C10.3895 39.4809 10.6609 39.6035 11.0287 39.8486C11.3964 40.085 11.821 40.374 12.3026 40.7154C12.7929 41.0569 13.3226 41.394 13.8917 41.7267C15.275 42.5497 16.619 42.9612 17.9235 42.9612C18.5714 42.9612 19.0355 42.8299 19.3156 42.5672C19.5958 42.3045 19.7359 42.0419 19.7359 41.7792C19.7359 41.5078 19.5871 41.2057 19.2894 40.873C18.9917 40.5316 18.6021 40.1814 18.1205 39.8224C17.6477 39.4634 17.1224 39.0869 16.5446 38.6929C15.9667 38.2902 15.3889 37.8656 14.811 37.419C14.2331 36.9725 13.7078 36.526 13.235 36.0795C12.1581 35.0638 11.6197 34.0745 11.6197 33.1114C11.6197 32.4285 11.7991 31.8112 12.1581 31.2596C12.5258 30.708 12.9899 30.2615 13.5502 29.92C14.1193 29.5786 14.7628 29.294 15.4808 29.0664C16.7678 28.6461 18.0943 28.436 19.4601 28.436C19.8366 28.436 20.1168 28.4929 20.3006 28.6067C20.4845 28.7206 20.5764 28.8519 20.5764 29.0007C20.5764 29.1496 20.5108 29.3772 20.3794 29.6836C20.2481 29.9813 20.1824 30.2484 20.1824 30.4848C20.1824 30.7212 20.34 31.0232 20.6552 31.3909C20.9792 31.7587 21.3951 32.1352 21.9029 32.5204C22.4107 32.9056 22.971 33.3171 23.5839 33.7549C24.1968 34.1927 24.8097 34.6567 25.4225 35.147C26.0354 35.6373 26.5958 36.1364 27.1036 36.6442C28.2505 37.7911 28.824 38.9031 28.824 39.98C28.824 41.0481 28.5438 41.9412 27.9835 42.6591C27.4319 43.3771 26.6614 43.933 25.6721 44.327C24.6827 44.721 23.597 45.0056 22.4151 45.1807C21.2331 45.3645 19.7928 45.4565 18.0943 45.4565C16.3957 45.4565 14.5221 45.2814 12.4733 44.9312C10.4333 44.5722 9.10249 44.2307 8.48086 43.9068ZM30.2292 31.0495C29.0823 29.6836 27.6595 28.668 25.961 28.0026C24.2712 27.3284 22.507 26.9914 20.6684 26.9914C17.2975 26.9914 14.0493 27.6261 10.9236 28.8957C10.5034 29.062 10.2057 29.1452 10.0306 29.1452C9.68034 29.1452 9.50524 28.9788 9.50524 28.6461C9.50524 28.3747 9.73725 28.0508 10.2013 27.6743C10.6741 27.2978 11.3482 26.9126 12.2238 26.5186C13.1081 26.1158 14.1062 25.7437 15.2181 25.4023C17.7572 24.623 20.4801 24.2334 23.3869 24.2334C27.6858 24.2334 30.9297 24.8375 33.1185 26.0458C33.2411 26.1158 33.2936 26.326 33.2761 26.6762C33.2674 27.0176 33.1098 27.5473 32.8033 28.2653C32.4969 28.9832 32.1248 29.6486 31.687 30.2615C31.258 30.8744 30.8903 31.1808 30.5838 31.1808C30.505 31.0933 30.3868 31.0495 30.2292 31.0495Z" fill="white" fill-opacity="0.9"/>
<path d="M42.8828 45V19.8607H48.1545V26.029L47.9035 29.2207C48.5729 28.623 49.3499 28.0731 50.2345 27.571C51.143 27.0451 52.195 26.7821 53.3904 26.7821C55.3269 26.7821 56.7256 27.4276 57.5862 28.7186C58.4708 29.9857 58.9131 31.731 58.9131 33.9545V45H53.6414V34.6359C53.6414 33.3448 53.4621 32.4602 53.1035 31.9821C52.7688 31.5039 52.2189 31.2648 51.4538 31.2648C50.7844 31.2648 50.2106 31.4202 49.7324 31.731C49.2543 32.0179 48.7283 32.4363 48.1545 32.9862V45H42.8828ZM71.009 45.4303C69.5028 45.4303 68.0803 45.0717 66.7414 44.3545C65.4265 43.6133 64.3626 42.5494 63.5497 41.1628C62.7368 39.7522 62.3304 38.0667 62.3304 36.1062C62.3304 34.1218 62.7368 32.4363 63.5497 31.0497C64.3626 29.663 65.4265 28.611 66.7414 27.8938C68.0803 27.1526 69.5028 26.7821 71.009 26.7821C72.5152 26.7821 73.9258 27.1526 75.2407 27.8938C76.5557 28.611 77.6196 29.663 78.4325 31.0497C79.2453 32.4363 79.6518 34.1218 79.6518 36.1062C79.6518 38.0667 79.2453 39.7522 78.4325 41.1628C77.6196 42.5494 76.5557 43.6133 75.2407 44.3545C73.9258 45.0717 72.5152 45.4303 71.009 45.4303ZM71.009 41.1628C72.0849 41.1628 72.8978 40.7085 73.4476 39.8C73.9975 38.8676 74.2725 37.6363 74.2725 36.1062C74.2725 34.5522 73.9975 33.3209 73.4476 32.4124C72.8978 31.5039 72.0849 31.0497 71.009 31.0497C69.9093 31.0497 69.0844 31.5039 68.5345 32.4124C68.0086 33.3209 67.7456 34.5522 67.7456 36.1062C67.7456 37.6363 68.0086 38.8676 68.5345 39.8C69.0844 40.7085 69.9093 41.1628 71.009 41.1628ZM83.2626 51.5986V27.2124H87.5661L87.9247 28.9697H88.0682C88.7615 28.348 89.5385 27.834 90.3992 27.4276C91.2838 26.9972 92.1923 26.7821 93.1247 26.7821C95.2764 26.7821 96.9739 27.6069 98.2171 29.2566C99.4603 30.8823 100.082 33.0699 100.082 35.8193C100.082 37.8515 99.7233 39.5848 99.0061 41.0193C98.2888 42.4538 97.3564 43.5536 96.2088 44.3186C95.0852 45.0598 93.8778 45.4303 92.5868 45.4303C91.8217 45.4303 91.0806 45.2749 90.3633 44.9641C89.6461 44.6294 88.9767 44.1632 88.3551 43.5655L88.5344 46.3986V51.5986H83.2626ZM91.3675 41.1269C92.276 41.1269 93.053 40.7085 93.6985 39.8717C94.344 39.0349 94.6668 37.708 94.6668 35.891C94.6668 32.6874 93.6387 31.0855 91.5826 31.0855C90.5546 31.0855 89.5385 31.6234 88.5344 32.6993V39.9793C89.0125 40.4097 89.4907 40.7085 89.9688 40.8759C90.447 41.0432 90.9132 41.1269 91.3675 41.1269ZM144.927 45V27.2124H149.23L149.589 29.5076H149.732C150.474 28.7664 151.262 28.1329 152.099 27.6069C152.936 27.057 153.94 26.7821 155.112 26.7821C156.379 26.7821 157.395 27.0451 158.16 27.571C158.949 28.0731 159.571 28.8023 160.025 29.7586C160.814 28.9457 161.651 28.2524 162.535 27.6786C163.42 27.0809 164.448 26.7821 165.619 26.7821C167.532 26.7821 168.931 27.4276 169.815 28.7186C170.724 29.9857 171.178 31.731 171.178 33.9545V45H165.906V34.6359C165.906 33.3448 165.727 32.4602 165.368 31.9821C165.034 31.5039 164.484 31.2648 163.719 31.2648C162.834 31.2648 161.818 31.8386 160.67 32.9862V45H155.399V34.6359C155.399 33.3448 155.219 32.4602 154.861 31.9821C154.526 31.5039 153.976 31.2648 153.211 31.2648C152.326 31.2648 151.322 31.8386 150.199 32.9862V45H144.927ZM180.159 45.4303C178.533 45.4303 177.242 44.9163 176.285 43.8883C175.329 42.8363 174.851 41.5572 174.851 40.051C174.851 38.1862 175.64 36.7278 177.218 35.6759C178.796 34.6239 181.342 33.9186 184.856 33.56C184.809 32.771 184.57 32.1494 184.139 31.6952C183.733 31.217 183.039 30.9779 182.059 30.9779C181.318 30.9779 180.565 31.1214 179.8 31.4083C179.035 31.6952 178.222 32.0897 177.361 32.5917L175.461 29.1131C176.584 28.4198 177.78 27.8579 179.047 27.4276C180.338 26.9972 181.677 26.7821 183.063 26.7821C185.335 26.7821 187.08 27.4395 188.299 28.7545C189.519 30.0694 190.128 32.0897 190.128 34.8152V45H185.825L185.466 43.171H185.323C184.582 43.8405 183.781 44.3903 182.92 44.8207C182.083 45.2271 181.163 45.4303 180.159 45.4303ZM181.952 41.3421C182.549 41.3421 183.063 41.2106 183.494 40.9476C183.948 40.6607 184.402 40.2901 184.856 39.8359V36.7159C182.992 36.9549 181.701 37.3375 180.983 37.8634C180.266 38.3655 179.907 38.9632 179.907 39.6566C179.907 40.2303 180.087 40.6607 180.445 40.9476C180.828 41.2106 181.33 41.3421 181.952 41.3421ZM194.587 45V27.2124H198.891L199.249 30.3324H199.393C200.038 29.137 200.815 28.2524 201.724 27.6786C202.632 27.0809 203.541 26.7821 204.449 26.7821C204.952 26.7821 205.37 26.8179 205.705 26.8897C206.039 26.9375 206.326 27.0211 206.565 27.1407L205.705 31.6952C205.394 31.5995 205.083 31.5278 204.772 31.48C204.485 31.4322 204.151 31.4083 203.768 31.4083C203.099 31.4083 202.393 31.6593 201.652 32.1614C200.935 32.6395 200.337 33.4763 199.859 34.6717V45H194.587ZM215.726 45.4303C213.526 45.4303 211.948 44.7968 210.992 43.5297C210.06 42.2625 209.593 40.6009 209.593 38.5448V31.3366H207.155V27.4276L209.88 27.2124L210.49 22.4786H214.865V27.2124H219.133V31.3366H214.865V38.4731C214.865 39.4772 215.068 40.2064 215.475 40.6607C215.905 41.091 216.467 41.3062 217.16 41.3062C217.447 41.3062 217.734 41.2703 218.021 41.1986C218.332 41.1269 218.607 41.0432 218.846 40.9476L219.671 44.7848C219.216 44.9283 218.655 45.0717 217.985 45.2152C217.34 45.3586 216.587 45.4303 215.726 45.4303Z" fill="#040325"/>
<path d="M104.072 43.2927C103.707 43.1176 103.525 42.7528 103.525 42.1983C103.525 41.6438 103.97 40.4618 104.86 38.6523C105.75 36.8283 106.451 35.9163 106.961 35.9163C107.253 35.9163 107.706 36.1206 108.318 36.5292C108.931 36.9232 109.639 37.4047 110.442 37.9738C111.259 38.5429 112.142 39.1047 113.09 39.6592C115.396 41.0309 117.636 41.7167 119.81 41.7167C120.89 41.7167 121.663 41.4978 122.13 41.0601C122.597 40.6223 122.831 40.1845 122.831 39.7468C122.831 39.2944 122.582 38.791 122.086 38.2365C121.59 37.6674 120.941 37.0837 120.138 36.4854C119.35 35.8871 118.475 35.2596 117.512 34.603C116.549 33.9317 115.585 33.224 114.622 32.4798C113.659 31.7356 112.784 30.9914 111.996 30.2472C110.201 28.5545 109.303 26.9055 109.303 25.3004C109.303 24.1622 109.603 23.1334 110.201 22.2141C110.814 21.2948 111.587 20.5506 112.521 19.9815C113.47 19.4124 114.542 18.9381 115.739 18.5587C117.884 17.8583 120.094 17.5081 122.371 17.5081C122.998 17.5081 123.465 17.6029 123.772 17.7926C124.078 17.9823 124.231 18.2012 124.231 18.4493C124.231 18.6974 124.122 19.0768 123.903 19.5875C123.684 20.0836 123.575 20.5287 123.575 20.9227C123.575 21.3167 123.837 21.8201 124.363 22.433C124.903 23.0459 125.596 23.6733 126.442 24.3154C127.288 24.9575 128.222 25.6433 129.244 26.3729C130.265 27.1025 131.287 27.8759 132.308 28.6931C133.33 29.5103 134.264 30.342 135.11 31.1884C137.022 33.1 137.977 34.9532 137.977 36.748C137.977 38.5283 137.51 40.0167 136.576 41.2133C135.657 42.4099 134.373 43.3365 132.724 43.9931C131.075 44.6498 129.266 45.124 127.296 45.4159C125.326 45.7223 122.925 45.8755 120.094 45.8755C117.264 45.8755 114.141 45.5837 110.726 45C107.326 44.4017 105.108 43.8326 104.072 43.2927ZM140.319 21.8639C138.408 19.5875 136.037 17.8948 133.206 16.7858C130.389 15.6622 127.449 15.1004 124.385 15.1004C118.767 15.1004 113.353 16.1583 108.143 18.2742C107.443 18.5514 106.947 18.6901 106.655 18.6901C106.071 18.6901 105.779 18.4128 105.779 17.8583C105.779 17.4059 106.166 16.866 106.939 16.2386C107.727 15.6111 108.851 14.969 110.31 14.3124C111.784 13.6411 113.448 13.0209 115.301 12.4518C119.533 11.1531 124.071 10.5038 128.916 10.5038C136.08 10.5038 141.487 11.5106 145.135 13.5244C145.339 13.6411 145.427 13.9913 145.398 14.575C145.383 15.1441 145.12 16.027 144.61 17.2235C144.099 18.4201 143.479 19.5291 142.749 20.5506C142.034 21.572 141.421 22.0828 140.91 22.0828C140.779 21.9369 140.582 21.8639 140.319 21.8639Z" fill="#55ACEE"/>
</svg>
