<svg width="17" height="16" viewBox="0 0 17 16" fill="none" xmlns="http://www.w3.org/2000/svg">
<path d="M14.9315 1L13.4597 2.47174M13.4597 2.47174L15.6673 4.67936L13.0918 7.25491L10.8842 5.04729M13.4597 2.47174L10.8842 5.04729M7.85973 8.07173C8.23969 8.44663 8.54174 8.89299 8.74849 9.3851C8.95523 9.87722 9.06259 10.4054 9.06438 10.9391C9.06616 11.4729 8.96235 12.0018 8.75891 12.4953C8.55546 12.9888 8.25641 13.4371 7.87897 13.8146C7.50153 14.192 7.05316 14.4911 6.55967 14.6945C6.06618 14.898 5.53732 15.0018 5.00354 15C4.46977 14.9982 3.94162 14.8908 3.4495 14.6841C2.95738 14.4773 2.51103 14.1753 2.13612 13.7953C1.39888 13.032 0.990932 12.0097 1.00015 10.9485C1.00937 9.88728 1.43502 8.87217 2.18543 8.12176C2.93583 7.37136 3.95094 6.94571 5.01213 6.93649C6.07331 6.92727 7.09567 7.33522 7.859 8.07246L7.85973 8.07173ZM7.85973 8.07173L10.8842 5.04729" stroke="#FF9F87" stroke-width="2" stroke-linecap="round" stroke-linejoin="round"/>
</svg>
