<svg width="14" height="15" viewBox="0 0 14 15" fill="none" xmlns="http://www.w3.org/2000/svg">
<path d="M6.66667 7.77778C7.55072 7.77778 8.39857 7.42659 9.02369 6.80147C9.64881 6.17635 10 5.3285 10 4.44444C10 3.56039 9.64881 2.71254 9.02369 2.08742C8.39857 1.4623 7.55072 1.11111 6.66667 1.11111C5.78261 1.11111 4.93477 1.4623 4.30964 2.08742C3.68452 2.71254 3.33333 3.56039 3.33333 4.44444C3.33333 5.3285 3.68452 6.17635 4.30964 6.80147C4.93477 7.42659 5.78261 7.77778 6.66667 7.77778ZM6.66667 8.88889C5.48793 8.88889 4.35746 8.42064 3.52397 7.58714C2.69047 6.75365 2.22222 5.62318 2.22222 4.44444C2.22222 3.2657 2.69047 2.13524 3.52397 1.30175C4.35746 0.468253 5.48793 0 6.66667 0C7.84541 0 8.97587 0.468253 9.80936 1.30175C10.6429 2.13524 11.1111 3.2657 11.1111 4.44444C11.1111 5.62318 10.6429 6.75365 9.80936 7.58714C8.97587 8.42064 7.84541 8.88889 6.66667 8.88889ZM12.2222 14.4444V12.7778C12.2222 12.3358 12.0466 11.9118 11.7341 11.5993C11.4215 11.2867 10.9976 11.1111 10.5556 11.1111H2.77778C2.33575 11.1111 1.91183 11.2867 1.59927 11.5993C1.28671 11.9118 1.11111 12.3358 1.11111 12.7778V14.4444C1.11111 14.5918 1.05258 14.7331 0.948393 14.8373C0.844206 14.9415 0.702898 15 0.555556 15C0.408213 15 0.266905 14.9415 0.162719 14.8373C0.0585317 14.7331 0 14.5918 0 14.4444V12.7778C0 12.0411 0.292658 11.3345 0.813592 10.8136C1.33453 10.2927 2.04107 10 2.77778 10H10.5556C11.2923 10 11.9988 10.2927 12.5197 10.8136C13.0407 11.3345 13.3333 12.0411 13.3333 12.7778V14.4444C13.3333 14.5918 13.2748 14.7331 13.1706 14.8373C13.0664 14.9415 12.9251 15 12.7778 15C12.6304 15 12.4891 14.9415 12.3849 14.8373C12.2808 14.7331 12.2222 14.5918 12.2222 14.4444Z" fill="#FF8A71"/>
</svg>
