<svg width="18" height="18" viewBox="0 0 18 18" fill="none" xmlns="http://www.w3.org/2000/svg">
<path d="M16.506 4.96C15.7928 7.74262 14.3448 10.2824 12.3136 12.3136C10.2824 14.3448 7.74262 15.7928 4.96 16.506C2.819 17.051 1 15.21 1 13V12C1 11.448 1.449 11.005 1.998 10.95C2.90852 10.8603 3.80229 10.6452 4.654 10.311L6.174 11.831C8.64892 10.6447 10.6447 8.64892 11.831 6.174L10.311 4.654C10.6456 3.80234 10.8609 2.90857 10.951 1.998C11.005 1.448 11.448 1 12 1H13C15.21 1 17.051 2.819 16.506 4.96Z" stroke="black" stroke-linecap="round" stroke-linejoin="round"/>
</svg>
