<svg width="18" height="14" viewBox="0 0 18 14" fill="none" xmlns="http://www.w3.org/2000/svg">
<path d="M17.2282 1.64706C16.5941 1.93529 15.9106 2.12471 15.2024 2.21529C15.9271 1.77882 16.4871 1.08706 16.7506 0.255294C16.0671 0.667059 15.3094 0.955294 14.5106 1.12C13.86 0.411765 12.9459 0 11.9082 0C9.97294 0 8.39176 1.58118 8.39176 3.53294C8.39176 3.81294 8.42471 4.08471 8.48235 4.34C5.55059 4.19177 2.94 2.78353 1.20235 0.650588C0.897647 1.16941 0.724706 1.77882 0.724706 2.42118C0.724706 3.64824 1.34235 4.73529 2.29765 5.35294C1.71294 5.35294 1.16941 5.18824 0.691765 4.94118V4.96588C0.691765 6.67882 1.91059 8.11176 3.52471 8.43294C3.00648 8.57476 2.46243 8.59449 1.93529 8.49059C2.15897 9.19263 2.59703 9.80692 3.1879 10.2471C3.77876 10.6873 4.49272 10.9313 5.22941 10.9447C3.98064 11.9333 2.4327 12.4677 0.84 12.46C0.56 12.46 0.28 12.4435 0 12.4106C1.56471 13.4153 3.42588 14 5.41882 14C11.9082 14 15.4741 8.61412 15.4741 3.94471C15.4741 3.78824 15.4741 3.64 15.4659 3.48353C16.1576 2.98941 16.7506 2.36353 17.2282 1.64706Z" fill="black"/>
</svg>
